<svg xmlns="http://www.w3.org/2000/svg" xmlns:svgjs="http://svgjs.com/svgjs" xmlns:xlink="http://www.w3.org/1999/xlink" id="SvgjsSvg1008" width="10" height="15" version="1.1" viewBox="0 0 10 15"><title>Фигура 7 копия 2</title><desc>Created with Avocode.</desc><defs id="SvgjsDefs1009"><filter id="SvgjsFilter1011" width="200%" height="200%" x="-50%" y="-50%"><feMorphology id="SvgjsFeMorphology1012" in="SourceGraphic" operator="dilate" radius="0" result="SvgjsFeMorphology1012Out"/><feOffset id="SvgjsFeOffset1013" dx="0" dy="1" in="SvgjsFeMorphology1012Out" result="SvgjsFeOffset1013Out"/><feGaussianBlur id="SvgjsFeGaussianBlur1014" in="SvgjsFeOffset1013Out" result="SvgjsFeGaussianBlur1014Out" stdDeviation="0"/><feComposite id="SvgjsFeComposite1015" in="SvgjsFeGaussianBlur1014Out" in2="SourceAlpha" operator="out" result="SvgjsFeComposite1015Out"/></filter></defs><path id="SvgjsPath1010" fill="#fff" fill-opacity=".08" d="M69.1107 397.998H64.0013V410.99199999999996H73.997V403.14699999999993ZM69.3211 399.29L72.7403 402.894H70V403H66V402H69.3211ZM66 409V408H72V409ZM66 407V406H72V407ZM66 405V404H72V405Z" filter="url(#SvgjsFilter1011)" transform="matrix(1,0,0,1,-64,-397)"/><path id="SvgjsPath1016" fill="#fff" fill-opacity="1" d="M69.1107 397.998H64.0013V410.99199999999996H73.997V403.14699999999993ZM69.3211 399.29L72.7403 402.894L70 402.894V403H66V402H69.3211ZM66 409V408H72V409ZM66 407V406H72V407ZM66 405V404H72V405Z" transform="matrix(1,0,0,1,-64,-397)"/><path id="SvgjsPath1017" fill="#fff" fill-opacity="1" d="M69.1107 397.998H64.0013V410.99199999999996H73.997V403.14699999999993ZM69.3211 399.29L72.7403 402.894L70 402.894V403H66V402H69.3211ZM66 409V408H72V409ZM66 407V406H72V407ZM66 405V404H72V405Z" transform="matrix(1,0,0,1,-64,-397)"/><path id="SvgjsPath1018" fill="#2c3456" fill-opacity="1" d="M69.1107 397.998H64.0013V410.99199999999996H73.997V403.14699999999993ZM69.3211 399.29L72.7403 402.894H70V403H66V402H69.3211ZM66 409V408H72V409ZM66 407V406H72V407ZM66 405V404H72V405Z" transform="matrix(1,0,0,1,-64,-397)"/></svg>